Coordinates
version=1
nRows=17
nColumns=33
inDegrees=yes

Units are S.I. units (second, meters, Newtons, ...)
Angles are in degrees.

endheader
time	ground_thorax_rot_x	ground_thorax_rot_y	ground_thorax_rot_z	ground_thorax_tx	ground_thorax_ty	ground_thorax_tz	clav_prot_r	clav_elev_r	scapula_abduction_r	scapula_elevation_r	scapula_upward_rot_r	scapula_winging_r	shoulder_elv_r	plane_of_elev_r	axial_rot_r	elbow_flexion_r	pro_sup_r	wrist_flex_r	wrist_dev_r	clav_prot_l	clav_elev_l	scapula_abduction_l	scapula_elevation_l	scapula_upward_rot_l	scapula_winging_l	shoulder_elv_l	plane_of_elev_l	axial_rot_l	elbow_flexion_l	pro_sup_l	wrist_flex_l	wrist_dev_l	
9.1100	41.081853	17.431110	17.130912	-150.204247	795.352286	6.767633	14.942521	42.145877	41.611447	44.928817	-25.105400	2790.847773	-3538.978445	31.582076	53.671425	1450.763960	14.504483	17.710384	11.825129	5.745559	-45.000000	-35.445070	45.000000	-43.117720	-1349.868208	-2088.456430	22.896192	-45.090567	370.340003	10.069619	8.999916	-18.900495	
9.1200	40.984255	17.560945	17.392000	-146.621884	793.266475	6.703390	15.074117	42.179343	41.654891	44.872936	-25.060370	2790.981835	-3539.244058	31.500942	53.944694	1450.695889	15.507088	17.697664	11.857717	5.629586	-45.000000	-35.363402	45.000000	-43.279407	-1350.260121	-2088.671904	22.913841	-44.987251	370.248965	10.832764	9.093225	-18.836822	
9.1300	40.865804	17.651548	17.633860	-143.056515	791.200502	6.641134	15.201121	42.192177	41.722430	44.771147	-24.950150	2791.087504	-3539.505547	31.391306	54.254617	1450.623747	16.533908	17.691498	11.882359	5.502017	-45.000000	-35.300716	45.000000	-43.385698	-1350.642015	-2088.887867	22.922783	-44.880569	370.148053	11.697084	9.171191	-18.780328	
9.1400	40.711511	17.709335	17.865363	-139.518374	789.164017	6.581935	15.237240	42.147831	41.812945	44.593533	-24.766039	2791.142259	-3539.752500	31.256012	54.622377	1450.551563	17.555257	17.687250	11.888355	5.431086	-45.000000	-35.272717	45.000000	-43.424811	-1350.980127	-2089.112576	22.941871	-44.791130	370.030169	12.656029	9.233538	-18.728825	
9.1500	40.534476	17.657479	17.994468	-136.016730	787.167994	6.527271	15.270116	42.066557	41.986696	44.308589	-24.385886	2791.102594	-3540.000558	31.061578	55.111380	1450.479799	18.586570	17.689463	11.890609	5.321452	-45.000000	-35.310500	45.000000	-43.271009	-1351.296922	-2089.342272	22.947429	-44.685607	369.904323	13.713516	9.278082	-18.686481	
9.1600	40.328092	17.460389	17.964733	-132.560124	785.224542	6.478824	15.218554	41.923432	42.262621	43.872348	-23.716170	2790.904488	-3540.257461	30.813676	55.790178	1450.412491	19.656009	17.696647	11.871541	5.220562	-45.000000	-35.472869	45.000000	-42.828672	-1351.563566	-2089.586167	22.952752	-44.565060	369.778090	14.904468	9.305211	-18.658940	
9.1700	40.098674	17.147265	17.811020	-129.156775	783.346017	6.437666	15.144649	41.725763	42.616061	43.325492	-22.843475	2790.593295	-3540.520976	30.533608	56.611401	1450.346294	20.733691	17.708133	11.845767	5.100935	-45.000000	-35.732739	45.000000	-42.165316	-1351.801029	-2089.828864	22.946114	-44.450551	369.647327	16.177632	9.307541	-18.641128	
9.1800	39.841886	16.709759	17.518136	-125.814456	781.543954	6.404084	14.983823	41.478021	43.046118	42.667000	-21.741152	2790.159348	-3540.787356	30.221886	57.573005	1450.296374	21.823269	17.721991	11.789119	5.001983	-45.000000	-36.115980	45.000000	-41.250329	-1351.984271	-2090.077518	22.942043	-44.339476	369.509428	17.508380	9.301614	-18.631077	
9.1900	39.577301	16.240933	17.202433	-122.540842	779.828279	6.377332	14.862431	41.215945	43.488449	41.997928	-20.635783	2789.718952	-3541.041388	29.918987	58.540540	1450.251600	22.862437	17.737247	11.730426	4.882744	-45.000000	-36.522831	45.000000	-40.285888	-1352.159382	-2090.310216	22.915860	-44.276666	369.365911	18.790238	9.273314	-18.619611	
9.2000	39.302564	15.759196	16.878769	-119.343030	778.206958	6.356739	14.714247	40.942883	43.923338	41.327907	-19.542587	2789.284082	-3541.271232	29.630359	59.482886	1450.217021	23.854615	17.749876	11.648712	4.791878	-45.000000	-36.961391	45.000000	-39.289050	-1352.307785	-2090.535235	22.880576	-44.264002	369.216778	19.997991	9.236821	-18.604908	
9.2100	39.017443	15.408926	16.716516	-116.227888	776.686389	6.342381	14.587250	40.671519	44.233511	40.754141	-18.745767	2788.980978	-3541.458346	29.425471	60.254901	1450.177070	24.719938	17.753309	11.566274	4.753959	-45.000000	-37.325718	45.000000	-38.521677	-1352.452666	-2090.729813	22.830534	-44.376107	369.060843	21.030328	9.179000	-18.576671	
9.2200	38.716211	15.133228	16.644320	-113.201228	775.271616	6.335979	14.393732	40.395836	44.455946	40.228226	-18.096014	2788.760542	-3541.604044	29.259278	60.913305	1450.144322	25.498621	17.746286	11.458215	4.780934	-45.000000	-37.674267	45.000000	-37.860583	-1352.564636	-2090.911221	22.781726	-44.568713	368.891322	21.919868	9.121147	-18.536130	
9.2300	38.416399	14.889322	16.588646	-110.268030	773.966949	6.340636	14.230337	40.119331	44.583591	39.746250	-17.498155	2788.620754	-3541.719800	29.133412	61.471351	1450.106417	26.211273	17.737145	11.361953	4.812552	-45.000000	-38.051799	45.000000	-37.203263	-1352.671894	-2091.076520	22.702268	-44.801716	368.715864	22.686507	9.050597	-18.488761	
9.2400	38.112691	14.585152	16.434601	-107.432024	772.776339	6.360554	13.997091	39.823253	44.696600	39.233846	-16.748211	2788.455278	-3541.828311	29.003598	62.031969	1450.070912	26.926883	17.724399	11.252931	4.866123	-45.000000	-38.543771	45.000000	-36.360941	-1352.734217	-2091.248022	22.612818	-45.033505	368.535793	23.428702	8.979547	-18.442117	
9.2500	37.812702	14.203119	16.132835	-104.696471	771.703374	6.399952	13.749852	39.521231	44.766517	38.703582	-15.802707	2788.278446	-3541.940804	28.886424	62.584362	1450.030918	27.640924	17.714424	11.156767	4.928531	-45.000000	-39.205775	45.000000	-35.260809	-1352.753959	-2091.427766	22.503118	-45.234834	368.353736	24.160116	8.903378	-18.400490	
9.2600	37.506176	13.708709	15.644925	-102.064270	770.750821	6.462285	13.376136	39.191116	44.843864	38.115978	-14.578336	2788.040763	-3542.059170	28.743947	63.168692	1449.998234	28.365652	17.699828	11.047500	5.029384	-45.000000	-40.074743	45.000000	-33.808546	-1352.685070	-2091.629234	22.390445	-45.419177	368.169378	24.926103	8.834795	-18.364619	
9.2700	37.215272	13.140062	15.027550	-99.539173	769.920001	6.549578	13.010282	38.868995	44.913995	37.518121	-13.192712	2787.790498	-3542.179750	28.597985	63.739707	1449.959552	29.061790	17.687493	10.957274	5.123256	-45.000000	-41.078752	45.000000	-32.135172	-1352.572852	-2091.844408	22.264802	-45.565800	367.987598	25.696216	8.760926	-18.333274	
